<svg width="16" height="21" viewBox="0 0 16 21" fill="none" xmlns="http://www.w3.org/2000/svg">
<path fill-rule="evenodd" clip-rule="evenodd" d="M7 0.375C6.44772 0.375 6 0.822715 6 1.375V8.375H4.54617C3.72707 8.375 3.25538 9.30584 3.73977 9.96636L7.26636 14.7754C7.66592 15.3202 8.47962 15.3202 8.87917 14.7754L12.4058 9.96636C12.8902 9.30584 12.4185 8.375 11.5994 8.375H10V1.375C10 0.822715 9.55229 0.375 9 0.375H7ZM0.684492 20.375C0.306652 20.375 0 20.039 0 19.625V18.125C0 17.711 0.306652 17.375 0.684492 17.375H15.3155C15.6933 17.375 16 17.711 16 18.125V19.625C16 20.039 15.6933 20.375 15.3155 20.375H0.684492Z" fill="#5736B8"/>
</svg>
